<svg width="487" height="286" xmlns="http://www.w3.org/2000/svg" xmlns:xlink="http://www.w3.org/1999/xlink" overflow="hidden"><defs><clipPath id="clip0"><rect x="397" y="217" width="487" height="286"/></clipPath></defs><g clip-path="url(#clip0)" transform="translate(-397 -217)"><rect x="397" y="218" width="486" height="284" fill="#FFFFFF"/><g><path d="M465.5 444.5 833.5 444.5M465.5 432.5 833.5 432.5M465.5 419.5 833.5 419.5M465.5 407.5 833.5 407.5M465.5 382.5 833.5 382.5M465.5 369.5 833.5 369.5M465.5 357.5 833.5 357.5M465.5 344.5 833.5 344.5M465.5 319.5 833.5 319.5M465.5 307.5 833.5 307.5M465.5 294.5 833.5 294.5M465.5 282.5 833.5 282.5M465.5 257.5 833.5 257.5M465.5 244.5 833.5 244.5" stroke="#F2F2F2" stroke-linejoin="round" stroke-miterlimit="10" fill="none"/></g><g><path d="M465.5 394.5 833.5 394.5M465.5 332.5 833.5 332.5M465.5 269.5 833.5 269.5" stroke="#D9D9D9" stroke-linejoin="round" stroke-miterlimit="10" fill="none"/></g><g><path d="M542.5 244.5 542.5 457.5M618.5 244.5 618.5 457.5M695.5 244.5 695.5 457.5M772.5 244.5 772.5 457.5" stroke="#D9D9D9" stroke-linejoin="round" stroke-miterlimit="10" fill="none"/></g><g><path d="M0.666667-3.28597e-07 0.666768 206.334-0.666565 206.334-0.666667 3.28597e-07ZM4.0001 205 0.000104987 213-3.9999 205Z" transform="matrix(1 0 0 -1 465.5 457.5)"/></g><g><path d="M461.5 457.5 465.5 457.5M461.5 394.5 465.5 394.5M461.5 332.5 465.5 332.5M461.5 269.5 465.5 269.5" stroke="#000000" stroke-width="1.33333" stroke-linejoin="round" stroke-miterlimit="10" fill="none"/></g><g><path d="M465.5 456.833 826.835 456.833 826.835 458.167 465.5 458.167ZM825.5 453.5 833.5 457.5 825.5 461.5Z"/></g><g><path d="M529.5 305.5 588.5 274.5 612.5 268.5" stroke="#D31F34" stroke-width="1.33333" stroke-linecap="round" stroke-linejoin="round" stroke-miterlimit="10" fill="none"/></g><g><path d="M534.351 305.864C534.351 308.809 531.963 311.197 529.018 311.197 526.072 311.197 523.684 308.809 523.684 305.864 523.684 302.918 526.072 300.53 529.018 300.53 531.963 300.53 534.351 302.918 534.351 305.864Z" fill="#D31F34"/><path d="M593.851 274.53C593.851 277.476 591.463 279.864 588.518 279.864 585.572 279.864 583.184 277.476 583.184 274.53 583.184 271.585 585.572 269.197 588.518 269.197 591.463 269.197 593.851 271.585 593.851 274.53Z" fill="#D31F34"/><path d="M617.684 268.364C617.684 271.309 615.297 273.697 612.351 273.697 609.405 273.697 607.018 271.309 607.018 268.364 607.018 265.418 609.405 263.03 612.351 263.03 615.297 263.03 617.684 265.418 617.684 268.364Z" fill="#D31F34"/></g><g><path d="M527.5 324.5 591.5 287.5" stroke="#5B82D1" stroke-width="1.33333" stroke-linecap="round" stroke-linejoin="round" stroke-miterlimit="10" fill="none"/></g><g><path d="M532.351 324.53C532.351 327.476 529.963 329.864 527.018 329.864 524.072 329.864 521.684 327.476 521.684 324.53 521.684 321.585 524.072 319.197 527.018 319.197 529.963 319.197 532.351 321.585 532.351 324.53Z" fill="#5B82D1"/><path d="M596.518 287.03C596.518 289.976 594.13 292.364 591.184 292.364 588.239 292.364 585.851 289.976 585.851 287.03 585.851 284.085 588.239 281.697 591.184 281.697 594.13 281.697 596.518 284.085 596.518 287.03Z" fill="#5B82D1"/></g><g><path d="M660 367C660 369.761 657.761 372 655 372 652.239 372 650 369.761 650 367 650 364.239 652.239 362 655 362 657.761 362 660 364.239 660 367Z" fill="#D09F02"/></g><g><path d="M622 358C622 360.761 619.761 363 617 363 614.239 363 612 360.761 612 358 612 355.239 614.239 353 617 353 619.761 353 622 355.239 622 358Z" fill="#9F7597"/></g><g><path d="M578 344.5C578 347.538 575.538 350 572.5 350 569.462 350 567 347.538 567 344.5 567 341.462 569.462 339 572.5 339 575.538 339 578 341.462 578 344.5Z" fill="#8C6FDF"/></g><g><path d="M515 417C515 419.761 512.538 422 509.5 422 506.462 422 504 419.761 504 417 504 414.239 506.462 412 509.5 412 512.538 412 515 414.239 515 417Z" fill="#ED7D31"/></g><g><path d="M537 335.5C537 338.538 534.538 341 531.5 341 528.462 341 526 338.538 526 335.5 526 332.462 528.462 330 531.5 330 534.538 330 537 332.462 537 335.5Z" fill="#249086"/></g><g><path d="M743 297C743 299.761 740.538 302 737.5 302 734.462 302 732 299.761 732 297 732 294.239 734.462 292 737.5 292 740.538 292 743 294.239 743 297Z" fill="#8BBFD9"/></g><g><path d="M747 424.5C747 427.538 744.761 430 742 430 739.239 430 737 427.538 737 424.5 737 421.462 739.239 419 742 419 744.761 419 747 421.462 747 424.5Z" fill="#B1C43C"/></g><g><text fill="#404040" font-family="Times New Roman,Times New Roman_MSFontService,sans-serif" font-weight="400" font-size="9" transform="translate(665.763 371)">MEInst</text></g><g><text fill="#404040" font-family="Times New Roman,Times New Roman_MSFontService,sans-serif" font-weight="400" font-size="9" transform="translate(693.763 371)">-</text></g><g><text fill="#404040" font-family="Times New Roman,Times New Roman_MSFontService,sans-serif" font-weight="400" font-size="9" transform="translate(696.87 371)">512</text></g><g><text fill="#404040" font-family="Times New Roman,Times New Roman_MSFontService,sans-serif" font-weight="400" font-size="9" transform="translate(626.396 361)">CenterMask</text></g><g><text fill="#404040" font-family="Times New Roman,Times New Roman_MSFontService,sans-serif" font-weight="400" font-size="9" transform="translate(672.01 361)">-</text></g><g><text fill="#404040" font-family="Times New Roman,Times New Roman_MSFontService,sans-serif" font-weight="400" font-size="9" transform="translate(675.116 361)">600</text></g><g><text fill="#404040" font-family="Times New Roman,Times New Roman_MSFontService,sans-serif" font-weight="400" font-size="9" transform="translate(586.069 348)">SOLOv2</text></g><g><text fill="#404040" font-family="Times New Roman,Times New Roman_MSFontService,sans-serif" font-weight="400" font-size="9" transform="translate(619.776 348)">-</text></g><g><text fill="#404040" font-family="Times New Roman,Times New Roman_MSFontService,sans-serif" font-weight="400" font-size="9" transform="translate(622.882 348)">448</text></g><g><text fill="#404040" font-family="Times New Roman,Times New Roman_MSFontService,sans-serif" font-weight="400" font-size="9" transform="translate(522.943 421)">YOLACT</text></g><g><text fill="#404040" font-family="Times New Roman,Times New Roman_MSFontService,sans-serif" font-weight="400" font-size="9" transform="translate(560.789 421)">-</text></g><g><text fill="#404040" font-family="Times New Roman,Times New Roman_MSFontService,sans-serif" font-weight="400" font-size="9" transform="translate(563.896 421)">550</text></g><g><text fill="#404040" font-family="Times New Roman,Times New Roman_MSFontService,sans-serif" font-weight="400" font-size="9" transform="translate(493.919 350)">SparseInst</text></g><g><text fill="#404040" font-family="Times New Roman,Times New Roman_MSFontService,sans-serif" font-weight="400" font-size="9" transform="translate(532.799 350)">-</text></g><g><text fill="#404040" font-family="Times New Roman,Times New Roman_MSFontService,sans-serif" font-weight="400" font-size="9" transform="translate(535.906 350)">608</text></g><g><text fill="#404040" font-family="Times New Roman,Times New Roman_MSFontService,sans-serif" font-weight="400" font-size="9" transform="translate(748.042 301)">CondInst</text></g><g><text fill="#404040" font-family="Times New Roman,Times New Roman_MSFontService,sans-serif" font-weight="400" font-size="9" transform="translate(782.269 301)">-</text></g><g><text fill="#404040" font-family="Times New Roman,Times New Roman_MSFontService,sans-serif" font-weight="400" font-size="9" transform="translate(785.376 301)">800</text></g><g><text fill="#404040" font-family="Times New Roman,Times New Roman_MSFontService,sans-serif" font-weight="400" font-size="9" transform="translate(752.86 428)">PolarMask</text></g><g><text fill="#404040" font-family="Times New Roman,Times New Roman_MSFontService,sans-serif" font-weight="400" font-size="9" transform="translate(793.3 428)">-</text></g><g><text fill="#404040" font-family="Times New Roman,Times New Roman_MSFontService,sans-serif" font-weight="400" font-size="9" transform="translate(796.407 428)">600</text></g><g><text fill="#404040" font-family="Times New Roman,Times New Roman_MSFontService,sans-serif" font-weight="400" font-size="9" transform="translate(466.197 300)">GQG</text></g><g><text fill="#404040" font-family="Times New Roman,Times New Roman_MSFontService,sans-serif" font-weight="400" font-size="9" transform="translate(486.417 300)">-</text></g><g><text fill="#404040" font-family="Times New Roman,Times New Roman_MSFontService,sans-serif" font-weight="400" font-size="9" transform="translate(489.524 300)">Former</text></g><g><text fill="#404040" font-family="Times New Roman,Times New Roman_MSFontService,sans-serif" font-weight="400" font-size="9" transform="translate(516.997 300)">-</text></g><g><text fill="#404040" font-family="Times New Roman,Times New Roman_MSFontService,sans-serif" font-weight="400" font-size="9" transform="translate(520.104 300)">D1</text></g><g><text fill="#404040" font-family="Times New Roman,Times New Roman_MSFontService,sans-serif" font-weight="400" font-size="9" transform="translate(531.511 300)">-</text></g><g><text fill="#404040" font-family="Times New Roman,Times New Roman_MSFontService,sans-serif" font-weight="400" font-size="9" transform="translate(534.617 300)">576</text></g><g><text fill="#404040" font-family="Times New Roman,Times New Roman_MSFontService,sans-serif" font-weight="400" font-size="9" transform="translate(494.91 277)">GQG</text></g><g><text fill="#404040" font-family="Times New Roman,Times New Roman_MSFontService,sans-serif" font-weight="400" font-size="9" transform="translate(515.13 277)">-</text></g><g><text fill="#404040" font-family="Times New Roman,Times New Roman_MSFontService,sans-serif" font-weight="400" font-size="9" transform="translate(518.236 277)">Former</text></g><g><text fill="#404040" font-family="Times New Roman,Times New Roman_MSFontService,sans-serif" font-weight="400" font-size="9" transform="translate(545.709 277)">-</text></g><g><text fill="#404040" font-family="Times New Roman,Times New Roman_MSFontService,sans-serif" font-weight="400" font-size="9" transform="translate(548.816 277)">D3</text></g><g><text fill="#404040" font-family="Times New Roman,Times New Roman_MSFontService,sans-serif" font-weight="400" font-size="9" transform="translate(560.223 277)">-</text></g><g><text fill="#404040" font-family="Times New Roman,Times New Roman_MSFontService,sans-serif" font-weight="400" font-size="9" transform="translate(563.33 277)">640</text></g><g><text fill="#404040" font-family="Times New Roman,Times New Roman_MSFontService,sans-serif" font-weight="400" font-size="9" transform="translate(525.532 263)">GQG</text></g><g><text fill="#404040" font-family="Times New Roman,Times New Roman_MSFontService,sans-serif" font-weight="400" font-size="9" transform="translate(545.752 263)">-</text></g><g><text fill="#404040" font-family="Times New Roman,Times New Roman_MSFontService,sans-serif" font-weight="400" font-size="9" transform="translate(548.859 263)">Former</text></g><g><text fill="#404040" font-family="Times New Roman,Times New Roman_MSFontService,sans-serif" font-weight="400" font-size="9" transform="translate(576.332 263)">-</text></g><g><text fill="#404040" font-family="Times New Roman,Times New Roman_MSFontService,sans-serif" font-weight="400" font-size="9" transform="translate(579.439 263)">D4</text></g><g><text fill="#404040" font-family="Times New Roman,Times New Roman_MSFontService,sans-serif" font-weight="400" font-size="9" transform="translate(590.845 263)">-</text></g><g><text fill="#404040" font-family="Times New Roman,Times New Roman_MSFontService,sans-serif" font-weight="400" font-size="9" transform="translate(593.952 263)">640</text></g><g><text fill="#404040" font-family="Times New Roman,Times New Roman_MSFontService,sans-serif" font-weight="400" font-size="9" transform="translate(535.002 327)">FastInst</text></g><g><text fill="#404040" font-family="Times New Roman,Times New Roman_MSFontService,sans-serif" font-weight="400" font-size="9" transform="translate(564.562 327)">-</text></g><g><text fill="#404040" font-family="Times New Roman,Times New Roman_MSFontService,sans-serif" font-weight="400" font-size="9" transform="translate(567.668 327)">D1</text></g><g><text fill="#404040" font-family="Times New Roman,Times New Roman_MSFontService,sans-serif" font-weight="400" font-size="9" transform="translate(579.075 327)">-</text></g><g><text fill="#404040" font-family="Times New Roman,Times New Roman_MSFontService,sans-serif" font-weight="400" font-size="9" transform="translate(582.182 327)">576</text></g><g><text fill="#404040" font-family="Times New Roman,Times New Roman_MSFontService,sans-serif" font-weight="400" font-size="9" transform="translate(604.505 291)">FastInst</text></g><g><text fill="#404040" font-family="Times New Roman,Times New Roman_MSFontService,sans-serif" font-weight="400" font-size="9" transform="translate(634.065 291)">-</text></g><g><text fill="#404040" font-family="Times New Roman,Times New Roman_MSFontService,sans-serif" font-weight="400" font-size="9" transform="translate(637.172 291)">D3</text></g><g><text fill="#404040" font-family="Times New Roman,Times New Roman_MSFontService,sans-serif" font-weight="400" font-size="9" transform="translate(648.578 291)">-</text></g><g><text fill="#404040" font-family="Times New Roman,Times New Roman_MSFontService,sans-serif" font-weight="400" font-size="9" transform="translate(651.685 291)">640</text></g><g><text fill="#595959" font-family="Times New Roman,Times New Roman_MSFontService,sans-serif" font-weight="400" font-size="12" transform="translate(443.328 461)">25</text></g><g><text fill="#595959" font-family="Times New Roman,Times New Roman_MSFontService,sans-serif" font-weight="400" font-size="12" transform="translate(443.328 399)">30</text></g><g><text fill="#595959" font-family="Times New Roman,Times New Roman_MSFontService,sans-serif" font-weight="400" font-size="12" transform="translate(443.328 336)">35</text></g><g><text fill="#595959" font-family="Times New Roman,Times New Roman_MSFontService,sans-serif" font-weight="400" font-size="12" transform="translate(443.328 274)">40</text></g><g><text fill="#595959" font-family="Times New Roman,Times New Roman_MSFontService,sans-serif" font-weight="400" font-size="12" transform="translate(459.536 475)">10</text></g><g><text fill="#595959" font-family="Times New Roman,Times New Roman_MSFontService,sans-serif" font-weight="400" font-size="12" transform="translate(536.212 475)">20</text></g><g><text fill="#595959" font-family="Times New Roman,Times New Roman_MSFontService,sans-serif" font-weight="400" font-size="12" transform="translate(612.888 475)">30</text></g><g><text fill="#595959" font-family="Times New Roman,Times New Roman_MSFontService,sans-serif" font-weight="400" font-size="12" transform="translate(689.565 475)">40</text></g><g><text fill="#595959" font-family="Times New Roman,Times New Roman_MSFontService,sans-serif" font-weight="400" font-size="12" transform="translate(766.241 475)">50</text></g><g><text font-family="Times New Roman,Times New Roman_MSFontService,sans-serif" font-weight="400" font-size="13" transform="matrix(6.12323e-17 -1 1 6.12323e-17 423.431 405)">COCO Mask AP</text></g><g><text font-family="Times New Roman,Times New Roman_MSFontService,sans-serif" font-weight="400" font-size="13" transform="translate(558.106 491)">V100 batch 1 inference time (ms)</text></g><g><path d="M0 0 0.126299 213.833" stroke="#C00000" stroke-width="0.666667" stroke-miterlimit="8" stroke-dasharray="2.66667 2" fill="none" fill-rule="evenodd" transform="matrix(-1 0 0 1 646.626 243.5)"/></g><g><path d="M564 443.5 569.5 438 569.5 440.75 646 440.75 646 446.25 569.5 446.25 569.5 449Z" fill="#C00000" fill-rule="evenodd"/></g><g><g><text fill="#C00000" font-family="Times New Roman,Times New Roman_MSFontService,sans-serif" font-weight="400" font-size="9" transform="translate(572.938 440)">Real</text></g></g><g><g><text fill="#C00000" font-family="Times New Roman,Times New Roman_MSFontService,sans-serif" font-weight="400" font-size="9" transform="translate(590.105 440)">-</text></g></g><g><g><text fill="#C00000" font-family="Times New Roman,Times New Roman_MSFontService,sans-serif" font-weight="400" font-size="9" transform="translate(593.271 440)">Time:</text></g></g><g><g><text fill="#C00000" font-family="Times New Roman,Times New Roman_MSFontService,sans-serif" font-weight="400" font-size="9" transform="translate(618.105 440)">30FPS</text></g></g></g></svg>